<?xml version="1.0" encoding="utf-8"?>
<!-- Generator: Adobe Illustrator 19.0.0, SVG Export Plug-In . SVG Version: 6.00 Build 0)  -->
<svg version="1.1" id="Layer_1" xmlns="http://www.w3.org/2000/svg" xmlns:xlink="http://www.w3.org/1999/xlink" x="0px" y="0px"
	 viewBox="0 0 612 792" style="enable-background:new 0 0 612 792;" xml:space="preserve">
<style type="text/css">
	.st0{fill:#DFDFDF;stroke:#FFFFFF;stroke-width:6;stroke-miterlimit:10;}
	.st1{fill:#FEFEFE;stroke:#FFFFFF;stroke-width:6;stroke-miterlimit:10;}
</style>
<g>
	<path class="st0" d="M309.5,512.1c3.8,0.4,7.4,0.8,10.9,1.2c5.8,0.5,11.6,1.1,17.4,1.6c2.1,0.2,3,1.3,3.3,3.4
		c2.3,16.8,4.8,33.7,7.1,50.5c3.7,26.1,7.3,52.1,10.9,78.2c0.1,0.4,0.2,0.8,0.7,1.1c-0.1-1.1-0.2-2.2-0.2-3.3c0-3,0-6,0-9
		c0.2-21.8-0.5-43.6-0.7-65.4c-0.1-12,0-24-0.4-36c-0.1-2.3,0.8-3.5,2.8-4.5c6.7-3.2,13.2-6.6,19.8-9.8c1.8-0.9,2.3-1.6,0.7-3.3
		c-4.3-4.4-8.4-9-12.6-13.5c-2-2.2-2.5-5.1-3.5-7.7c-9.5-25.2-19.1-50.3-28.5-75.5c-1.5-3.9-4.3-6.8-6.9-9.9
		c-17.6-21.4-35.2-42.8-52.8-64.1c-0.5-0.6-1.1-1.2-1.2-2.4c1.8,0.4,3.5,0.7,5.1,1c30.6,6.5,61.2,13,91.8,19.5
		c1.5,0.3,2.7,0.9,3.8,2c6.8,6.7,13.5,13.3,20.3,19.9c9.7,9.4,19.3,18.7,29,28.1c1.3,1.2,2.1,1.3,3.4,0.1
		c11.5-10.3,23.1-20.6,34.6-30.8c9.5-8.5,18.9-17,28.4-25.4c2.5-2.2,4.8-4.8,8.2-6.8c-1.1,5.3-2,10.2-3,15.1
		c-8,39.2-16.1,78.4-24.1,117.6c-0.8,3.7-3.7,5.8-5.8,8.5c-9.8,12.2-19.8,24.3-29.8,36.5c-1.8,2.3-3.6,4.6-5.6,6.7
		c-1.9,2.1-2.6,4.4-2.7,7.3c-0.2,11.6-0.5,23.1-1,34.7c-0.4,8.6-0.6,17.1-1,25.7c-0.5,13.4-1,26.8-1.5,40.3
		c-0.3,8.8-0.6,17.6-1,26.4c-0.5,13.4-1.2,26.8-1.4,40.3c-0.1,2.9-0.6,3.3-3.5,3.3c-74.8,0-149.6,0-224.4,0c-2.4,0-2.9-0.8-2.6-3
		c1.3-9.5,2.5-19.1,3.7-28.7c1.7-13.4,3.4-26.8,5.1-40.2c1.5-12,3.1-24.1,4.6-36.1c1.7-13.4,3.4-26.8,5.1-40.2
		c1.5-12.2,3-24.4,4.7-36.6c0.4-3.2,0-5.7-2-8.5c-11.4-16-22.4-32.2-33.6-48.3c-16.2-23.3-32.4-46.5-48.6-69.8
		c-11.1-16-22.2-31.9-33.3-47.9c-7.4-10.6-14.7-21.2-22.1-31.7c-2.5-3.6-2.6-3.6-0.2-7.2c14.9-22.1,29.9-44.2,44.8-66.2
		c10.5-15.5,21-31,31.5-46.5c9.2-13.6,18.5-27.2,27.7-40.9c1.3-1.9,2.4-2.1,4.4-1.1c19.2,8.8,38.5,17.4,57.8,26.1
		c17.5,7.9,35,15.8,52.5,23.7c10.9,4.9,21.7,9.8,32.6,14.7c0.4,0.2,0.9,0.5,1.3,0.6c2.5,0.7,3.1,2.2,2.6,4.8
		c-2.5,12.6-4.8,25.3-7.1,38c-0.4,2.1-1.3,3.2-3.5,3.7c-22.5,5.4-45,11-67.5,16.5c-1.8,0.4-3,0.1-4.4-1.2
		c-12.2-11.3-24.4-22.5-36.6-33.7c-0.3-0.3-0.5-0.6-1.1-0.5c-0.6,0.6-0.2,1.3-0.1,2c1.1,5.5,2.1,11,3.3,16.4c0.3,1.6,0.1,3-0.8,4.4
		c-4.3,6.6-8.5,13.2-12.7,19.9c-0.8,1.3-2.1,1.7-3.4,2.3c-3.6,1.7-7.2,3.3-10.8,5c-0.6,0.3-1.7,0.3-1.6,1.2c0.1,0.8,1.1,0.9,1.7,1.1
		c15.2,6,30.4,12.1,45.6,18.1c5.4,2.1,10.8,4.3,16.3,6.4c1.8,0.7,3.1,1.8,4.2,3.4c20.4,31.4,40.9,62.7,61.4,94.1
		c11.7,17.9,23.4,35.8,35,53.8c1.8,2.7,1.8,2.7-1,4.5c-12.6,8.1-25.2,16.2-37.8,24.3C310.9,510.6,310.1,511,309.5,512.1z"/>
	<path class="st0" d="M379.8,361.2c-0.7-0.3-1.6-0.6-2.4-1c-7-3.3-14-6.7-21.1-10c-12.5-5.9-25-11.9-37.5-17.8
		c-0.2-0.1-0.4-0.2-0.7-0.3c-3.3-1.6-3.3-1.6-1.2-4.6c29.9-44.9,59.9-89.8,89.8-134.7c1.9-2.9,1.9-2.9,4.7-1
		c22.2,15.1,44.5,30.3,66.7,45.4c1.7,1.2,2.1,1.9,0.6,3.7c-9,10.8-17.8,21.8-26.7,32.7c-12,14.7-24.1,29.4-36.1,44.2
		c-9.5,11.7-19,23.4-28.5,35c-2,2.4-4,4.9-6,7.3C381,360.6,380.7,361.3,379.8,361.2z"/>
	<path class="st0" d="M487.3,244.8c0.9,0.2,1.3,0.9,1.8,1.5c9.5,12.2,18.9,24.5,28.4,36.7c6.4,8.3,12.7,16.6,19.2,24.7
		c1.1,1.4,0.8,2.1-0.4,3.2c-9.4,8.3-18.7,16.8-28,25.1c-11.6,10.3-23.2,20.6-34.8,31c-7.2,6.5-14.4,13.1-21.6,19.5
		c-7.5,6.7-15,13.3-22.4,20.1c-1.5,1.4-2.5,0.5-3.5-0.4c-3.3-2.9-6.6-5.9-10-8.9c-8.1-7.2-16.2-14.4-24.3-21.6
		c-2.2-1.9-4.3-3.9-6.5-5.9c-1.1-0.9-1.1-1.8-0.2-2.9c8.9-10.7,17.8-21.4,26.7-32.1c9.2-11.1,18.4-22.1,27.6-33.2
		c9.2-11.1,18.4-22.1,27.6-33.2c6.1-7.3,12.1-14.6,18.2-21.8C485.8,246,486.3,245.1,487.3,244.8z"/>
	<path class="st0" d="M333,263.7c1.5-7.5,3-15.1,4.5-22.6c0.9-4.7,1.8-9.4,2.8-14.1c0.4-1.7-0.1-2.5-1.6-3.3
		c-16.8-9.3-33.5-18.7-50.3-28c-1.7-0.9-2.2-1.7-1-3.5c14.7-22.7,29.4-45.4,44-68.2c1.9-2.9,2-3,4.9-1.2
		c21.9,13.6,43.8,27.1,65.7,40.7c3.6,2.2,7.1,4.5,10.7,6.6c1.6,0.9,1.8,1.7,0.7,3.2c-14.1,20.3-28.2,40.6-42.3,60.8
		c-2.4,3.4-4.7,6.8-7.1,10.2c-0.7,1-1.6,1.9-2.6,2.5c-8.8,5.8-17.5,11.7-26.3,17.5c-0.6,0.4-1.1,1.1-1.9,0.6
		C332.8,264.8,333,264.2,333,263.7z"/>
	<path class="st0" d="M324.6,117.5c-0.4,0.6-0.7,1.3-1,1.9c-12.2,20.4-24.3,40.7-36.5,61.1c-2.2,3.6-4.4,7.2-6.4,10.9
		c-0.9,1.5-1.8,1.8-3.3,1.1c-12.6-5.4-25.1-10.8-37.7-16.2c-12.6-5.4-25.1-10.8-37.7-16.1c-1.9-0.8-2.1-1.4-0.9-3.1
		c19.1-25.2,38.2-50.5,57.2-75.8c1.1-1.5,2-1.7,3.6-0.7c20.2,11.7,40.4,23.2,60.6,34.9C323.3,115.9,324.5,116.2,324.6,117.5z"/>
	<path class="st0" d="M247.8,307.2c24.5-7.1,49.1-14.2,73.7-21.3c0.1,0.2,0.3,0.3,0.4,0.5c-1.4,2.5-2.8,5-4.3,7.4
		c-7.5,12.9-15.1,25.7-22.6,38.6c-0.9,1.6-1.8,1.8-3.3,0.9c-14.2-8.1-28.4-16.3-42.6-24.4C248.7,308.6,248,308.4,247.8,307.2z"/>
	<g>
		<path class="st1" d="M280.4,346c4.6,0.9,8.8,1.8,13.1,2.7c26.2,5.6,52.5,11.2,78.7,16.8c2,0.4,3.6,1.2,5,2.6
			c8.8,8.7,17.6,17.4,26.5,26c7.6,7.3,15.2,14.5,22.8,21.9c1.4,1.4,2.2,1.2,3.6-0.1c9.8-8.8,19.6-17.4,29.4-26.1
			c6.5-5.8,13-11.7,19.5-17.5c6-5.3,12-10.7,17.9-16c0.4-0.3,0.7-0.9,1.2-0.6c0.9,0.5,0.3,1.3,0.1,2c-2.5,12.3-4.9,24.6-7.5,36.9
			c-3.8,18.7-7.7,37.5-11.5,56.2c-2.2,10.6-4.4,21.1-6.5,31.7c-0.6,3.1-2.7,5.1-4.5,7.4c-11.5,14.1-22.8,28.4-34.7,42.2
			c-3.8,4.4-5,8.8-5.1,14.5c-0.1,14.2-0.8,28.3-1.4,42.5c-0.4,8.3-0.6,16.7-1,25c-0.5,13.9-1.1,27.8-1.5,41.7
			c-0.3,8.2-0.7,16.5-0.9,24.7c-0.3,9.4-0.8,18.8-1,28.1c0,3.2-0.6,3.6-3.8,3.6c-73.4,0-146.9,0-220.3,0c-3.5,0-3.5-0.1-3.1-3.6
			c2.7-21.1,5.3-42.2,8-63.4c2.5-19.8,5.1-39.5,7.6-59.2c2.6-20.2,5.1-40.3,7.7-60.5c0.2-1.5-0.4-2.7-1.2-3.8
			c-8.6-12.4-17.2-24.8-25.8-37.1c-8.4-12-16.8-24.1-25.2-36.1c-16.7-24-33.4-48-50.1-72c-12.3-17.7-24.6-35.4-36.9-53.1
			c-3.1-4.4-3-4.5,0-9c13.4-19.8,26.7-39.6,40.1-59.4c14.8-21.9,29.6-43.8,44.4-65.6c5.6-8.3,11.3-16.6,16.9-25
			c1.4-2.1,2.5-2.7,5.1-1.6c21.3,9.7,42.6,19.3,64,28.9c20.9,9.4,41.8,18.8,62.7,28.2c5.2,2.3,10.3,4.7,15.5,7
			c1.8,0.8,2.5,1.9,2.1,4c-2.4,12.4-4.7,24.8-7,37.3c-0.3,1.6-0.9,2.3-2.5,2.7c-22.2,5.4-44.4,10.8-66.6,16.3c-2,0.5-3.3,0-4.7-1.4
			c-12-11.1-24-22.2-36-33.3c-1.3-1.2-2.2-2.8-3.4-4.2c-1.5,1.4-1,2.1-0.8,2.9c1.4,6.9,2.7,13.8,4.1,20.7c0.3,1.5,0.1,2.7-0.7,3.9
			c-4.1,6.2-8.1,12.5-12.1,18.8c-0.9,1.5-2.4,2.1-3.9,2.8c-4.4,2-8.9,4-13.3,6c-0.6,0.3-1.6,0.4-1.6,1.3c0.1,0.8,1.1,0.9,1.7,1.1
			c21.6,8.6,43.2,17.1,64.9,25.7c1.6,0.6,3,1.5,3.9,3c5.6,8.7,11.2,17.3,16.8,25.9c16.8,25.8,33.7,51.5,50.6,77.3
			c9.4,14.4,18.9,28.9,28.3,43.4c1.7,2.6,1.6,2.7-0.9,4.3c-13.9,8.9-27.7,17.8-41.5,26.6c-0.3,0.2-0.7,0.4-0.7,1.1
			c2.5,1.1,5.3,0.8,8,1.1c7.6,0.8,15.3,1.5,23,2.1c2.1,0.2,3.1,0.9,3.4,3.1c4.4,31.6,8.9,63.2,13.4,94.7c2.2,15.6,4.3,31.1,6.5,46.7
			c0.1,0.8,0.1,1.9,1.1,1.8c1.1-0.1,0.8-1.3,0.8-2c-0.2-18.7-0.5-37.4-0.6-56.1c0-4.9-0.3-9.9-0.3-14.8c-0.2-18-0.3-36-0.6-53.9
			c0-2.5,0.8-3.9,3.1-5c6.9-3.3,13.6-6.8,20.5-10.1c1.8-0.9,2.3-1.5,0.7-3.3c-4.8-5.1-9.4-10.3-14.1-15.4c-0.8-0.9-1.2-1.9-1.6-3
			c-10.1-26.7-20.1-53.4-30.2-80c-1.8-4.7-5.5-8-8.5-11.7c-9.3-11.5-18.8-22.9-28.2-34.4c-6.5-7.9-13-15.7-19.5-23.6
			C281.6,348.3,280.8,347.5,280.4,346z"/>
		<path class="st1" d="M409.4,192.3c0.5,0.2,1,0.5,1.4,0.8c15.7,10.7,31.5,21.5,47.2,32.2c5.8,4,11.7,7.9,17.5,11.9
			c2.6,1.8,2.7,1.8,0.8,4.2c-14.3,17.6-28.7,35.1-43,52.7c-9.6,11.7-19.1,23.5-28.6,35.2c-7.8,9.6-15.7,19.1-23.5,28.8
			c-1.2,1.5-2.3,1.1-3.6,0.5c-6.8-3.2-13.6-6.5-20.4-9.7c-12.3-5.8-24.6-11.7-36.9-17.5c-3.1-1.5-3.2-1.5-1.2-4.5
			c29.4-44.1,58.8-88.2,88.2-132.3C407.8,193.8,408.2,192.7,409.4,192.3z"/>
		<path class="st1" d="M427.8,405.5c-0.6-0.4-1.4-0.9-2.1-1.6c-3.3-2.9-6.5-5.8-9.8-8.7c-8.4-7.5-16.8-15-25.2-22.4
			c-5-4.4-5-4.2-0.7-9.3c9.2-10.9,18.3-22,27.5-33c9.2-11.1,18.4-22.2,27.6-33.2c9.1-11,18.2-21.9,27.3-32.9
			c4.3-5.2,8.7-10.5,13-15.7c1.6-2,2.1-1.9,3.7,0.1c12.2,15.8,24.5,31.6,36.7,47.5c2.8,3.6,5.5,7.2,8.4,10.7
			c1.3,1.6,1.3,2.7-0.3,4.1c-7.2,6.4-14.4,12.8-21.6,19.2c-5.2,4.7-10.5,9.4-15.7,14.1c-8.9,8-17.9,16-26.8,24c-6.7,6-13.4,12-20,18
			c-6.8,6.1-13.6,12.3-20.4,18.4C429.1,405.1,428.8,405.5,427.8,405.5z"/>
		<path class="st1" d="M335.1,262.2c-0.3-1.2,0.2-2.4,0.5-3.5c2.1-10.5,4.1-21,6.3-31.5c0.5-2.2,0-3.6-2.1-4.7
			c-16.4-9.1-32.7-18.3-49-27.3c-1.9-1.1-2.1-2-1-3.8c8.4-13,16.8-26,25.2-39c5.6-8.6,11.1-17.3,16.7-26c2.1-3.4,2.1-3.4,5.5-1.3
			c24.4,15.1,48.7,30.2,73.1,45.3c1.9,1.2,1.9,2.1,0.8,3.8c-10.9,15.6-21.8,31.2-32.6,46.9c-5,7.2-10,14.4-14.9,21.6
			c-0.8,1.1-1.7,2.1-2.8,2.9c-7.7,5.1-15.3,10.3-23,15.4C336.8,261.5,336.2,262.2,335.1,262.2z"/>
		<path class="st1" d="M278.1,191.1c-0.6-0.2-1.4-0.5-2.2-0.8c-17.5-7.5-35-15-52.5-22.5c-6.3-2.7-12.7-5.4-19-8.1
			c-2.5-1-2.5-1.2-0.9-3.4c18.4-24.4,36.8-48.7,55.2-73.1c1.1-1.4,1.9-1.5,3.4-0.7c14.9,8.6,29.8,17.1,44.6,25.7
			c4.6,2.7,9.2,5.4,13.9,8c1.8,1,2.1,1.8,1,3.6c-8.4,14-16.8,28.1-25.2,42.1c-5.4,9.1-10.8,18.2-16.3,27.4
			C279.8,190,279.4,191,278.1,191.1z"/>
		<path class="st1" d="M292.8,331.9c-0.4-0.2-0.8-0.4-1.2-0.6c-12.8-7.3-25.6-14.6-38.4-22c-0.5-0.3-1.4-0.5-1.4-1.2
			c0.1-0.9,1.1-0.8,1.7-1c20.5-5.9,40.9-11.9,61.4-17.7c1-0.3,2.4-1.3,3.1-0.3c0.7,0.9-0.6,1.9-1.1,2.7
			c-7.5,12.8-14.9,25.6-22.4,38.4C294.1,330.9,293.9,331.8,292.8,331.9z"/>
	</g>
</g>
</svg>
