<svg xmlns="http://www.w3.org/2000/svg" xmlns:xlink="http://www.w3.org/1999/xlink" version="1.1" x="0px" y="0px" viewBox="0 0 100 125" enable-background="new 0 0 100 100" xml:space="preserve"><path fill="#000000" d="M85.138,38.935c0.631-1.172,1.009-2.558,1.009-4.169v-12.28  c0-2.652-1.069-4.993-3.009-6.589c-1.662-1.369-3.864-2.121-6.2-2.121c-1.484,0-2.971,0.319-4.307,0.938  c-0.321-2.119-1.387-3.966-3.104-5.288c-1.735-1.334-4.027-2.069-6.454-2.069c-2.168,0-4.344,0.613-6.085,1.804  c-0.484-0.709-1.077-1.352-1.788-1.899c-1.735-1.334-4.027-2.069-6.454-2.069c-2.898,0-5.809,1.093-7.673,3.206  c-0.069-0.056-0.13-0.118-0.2-0.173c-1.735-1.334-4.027-2.069-6.454-2.069c-4.81,0-9.679,2.991-9.679,8.708v6.189  c-5.303,1.478-10.161,8.054-11.595,16.182c-0.913,5.173-2.08,22.407,19.985,31.28v23.531c0,1.387,1.124,2.512,2.512,2.512  s2.512-1.125,2.512-2.512V65.035l-1.652-0.602c-19.55-7.122-19.387-20.778-18.409-26.321c1.247-7.066,5.707-12.347,8.863-12.347  h19.59c2.962,0,3.753,3.308,3.753,5.264c0,1.954-0.791,5.261-3.753,5.261H32.083c-0.194,0-0.38,0.027-0.561,0.068  c-1.189,0.199-2.096,1.225-2.096,2.47c0,1.387,1.124,2.512,2.512,2.512h17.275c6.536,0,12.268,6.041,12.268,12.927  c0,1.387,1.124,2.512,2.512,2.512s2.512-1.125,2.512-2.512c0-4.022-1.368-7.774-3.617-10.807c0.06,0.001,0.117,0.013,0.177,0.013  c2.621,0,5.254-0.895,7.113-2.628c0.177,0.175,0.357,0.349,0.552,0.509c1.662,1.367,3.864,2.119,6.2,2.119  c1.381,0,2.766-0.277,4.029-0.814c1.969,7.835,1.593,14.965-1.092,18.608c-1.495,2.026-3.67,3.012-6.651,3.012h-2.512v27.769  c0,1.387,1.124,2.512,2.512,2.512s2.512-1.125,2.512-2.512V69.115c3.412-0.533,6.21-2.19,8.182-4.865  C87.879,58.864,88.331,49.415,85.138,38.935z M34.419,11.184c1.306,0,2.541,0.374,3.39,1.027c0.845,0.651,1.257,1.519,1.257,2.657  v2.35v3.524h-9.303v-5.874C29.763,11.959,32.69,11.184,34.419,11.184z M46.544,20.742H44.09v-3.524v-2.35v-0.965  c0-2.909,2.927-3.684,4.657-3.684c1.726,0,4.647,0.775,4.647,3.684v2.164v8.337C51.924,22.237,49.633,20.742,46.544,20.742z   M63.063,38.451c-1.726,0-4.647-0.775-4.647-3.684v-2.164V16.067c0-2.909,2.927-3.684,4.657-3.684c1.726,0,4.647,0.775,4.647,3.684  v6.42v12.28C67.72,37.676,64.793,38.451,63.063,38.451z M76.929,38.451c-0.428,0-4.186-0.103-4.186-3.684v-12.28  c0-3.583,3.765-3.686,4.194-3.686c1.158,0,2.254,0.357,3.009,0.976c0.781,0.643,1.177,1.554,1.177,2.71v12.28  C81.123,38.348,77.359,38.451,76.929,38.451z"/><text x="0" y="115" fill="#000000" font-size="5px" font-weight="bold" font-family="'Helvetica Neue', Helvetica, Arial-Unicode, Arial, Sans-serif">Created by Simon Stratford</text><text x="0" y="120" fill="#000000" font-size="5px" font-weight="bold" font-family="'Helvetica Neue', Helvetica, Arial-Unicode, Arial, Sans-serif">from the Noun Project</text></svg>